<?xml version="1.0" standalone="no"?>
<!DOCTYPE svg PUBLIC "-//W3C//DTD SVG 20010904//EN"
 "http://www.w3.org/TR/2001/REC-SVG-20010904/DTD/svg10.dtd">
<svg version="1.0" xmlns="http://www.w3.org/2000/svg"
 width="1600.000000pt" height="1200.000000pt" viewBox="0 0 1600.000000 1200.000000"
 preserveAspectRatio="xMidYMid meet">

<g transform="translate(0.000000,1200.000000) scale(0.100000,-0.100000)"
fill="#000000" stroke="none">
<path d="M9244 7914 c-243 -196 -611 -332 -1012 -375 -143 -15 -479 -6 -622
16 -321 51 -609 160 -795 301 -129 99 -137 104 -165 104 -15 0 -36 -10 -50
-24 -22 -25 -22 -26 -17 -233 5 -224 21 -317 82 -478 169 -447 562 -783 1040
-890 113 -26 382 -31 506 -11 527 87 954 450 1123 956 47 140 66 254 73 441 6
169 3 199 -27 229 -32 32 -61 24 -136 -36z"/>
<path d="M5185 4425 c-96 -26 -155 -125 -155 -262 l0 -63 -60 0 -60 0 0 -50 0
-50 60 0 60 0 0 -255 0 -255 65 0 65 0 0 255 0 255 160 0 c157 0 160 0 165
-22 3 -13 5 -128 3 -256 l-3 -232 63 0 62 0 0 255 0 255 70 0 70 0 0 50 0 50
-70 0 -70 0 0 58 c0 102 53 162 143 162 l38 0 -3 58 -3 57 -69 -2 c-154 -5
-236 -101 -236 -275 l0 -58 -166 0 -167 0 5 75 c4 55 10 81 24 96 25 29 75 49
119 49 l35 0 0 60 0 60 -47 -1 c-27 0 -70 -6 -98 -14z"/>
<path d="M3633 4395 c-179 -49 -313 -197 -345 -383 -15 -91 -1 -189 42 -281
37 -79 132 -175 212 -213 165 -81 366 -52 499 70 l50 47 -47 37 -48 36 -41
-34 c-105 -86 -228 -102 -347 -46 -73 35 -114 76 -155 155 -25 47 -28 62 -28
152 0 87 3 107 26 156 92 197 328 253 497 119 l49 -38 47 37 47 36 -50 47
c-109 100 -268 140 -408 103z"/>
<path d="M7700 3941 l0 -451 65 0 65 0 2 168 3 167 47 3 c47 3 47 3 90 -56 24
-33 77 -110 118 -171 l75 -110 78 -1 c60 0 76 3 71 13 -4 6 -56 81 -116 165
-59 84 -108 155 -108 157 0 3 10 5 23 5 39 1 111 45 144 89 87 113 80 302 -15
397 -64 64 -85 69 -324 72 l-218 3 0 -450z m417 313 c45 -34 65 -77 66 -143 1
-123 -53 -162 -234 -169 l-119 -5 0 172 0 173 129 -4 c113 -3 133 -6 158 -24z"/>
<path d="M10658 4218 l-3 -113 -52 -3 -53 -3 0 -50 0 -49 55 0 55 0 0 -255 0
-255 60 0 60 0 0 255 0 255 70 0 70 0 0 50 0 49 -67 3 -68 3 -3 113 -3 112
-59 0 -59 0 -3 -112z"/>
<path d="M4419 4107 c-149 -42 -233 -154 -233 -312 0 -96 24 -159 86 -222 142
-145 395 -121 503 47 53 83 63 202 26 301 -25 66 -96 139 -166 170 -57 25
-157 33 -216 16z m143 -117 c81 -23 138 -103 138 -195 0 -153 -148 -249 -280
-182 -151 76 -141 317 15 372 48 17 78 18 127 5z"/>
<path d="M6024 4102 c-197 -68 -268 -334 -136 -507 90 -118 276 -153 415 -78
50 28 107 84 107 106 0 7 -19 22 -43 34 l-43 21 -36 -34 c-106 -97 -299 -53
-324 75 l-6 31 240 0 c133 0 243 3 245 8 9 16 -13 154 -31 196 -60 134 -234
201 -388 148z m224 -130 c32 -23 52 -54 66 -99 l7 -23 -180 0 c-106 0 -181 4
-181 9 0 42 47 105 95 127 47 22 153 14 193 -14z"/>
<path d="M6772 4105 c-121 -37 -197 -139 -209 -278 -12 -138 51 -256 168 -315
57 -30 76 -34 140 -34 96 0 176 29 235 86 24 24 44 49 44 57 0 8 -19 24 -43
36 l-43 21 -36 -34 c-92 -84 -263 -63 -311 39 -34 70 -44 67 222 67 132 0 242
3 244 8 9 16 -13 154 -31 196 -58 131 -228 199 -380 151z m202 -128 c39 -21
67 -58 81 -104 l6 -23 -180 0 c-106 0 -181 4 -181 9 0 21 22 67 43 90 51 55
161 68 231 28z"/>
<path d="M8667 4110 c-84 -22 -171 -90 -211 -169 -39 -74 -37 -212 4 -297 28
-57 108 -128 167 -148 60 -21 176 -20 237 0 64 22 147 100 177 166 46 107 26
261 -47 346 -69 81 -221 128 -327 102z m187 -147 c130 -92 109 -297 -36 -358
-96 -40 -205 4 -249 100 -34 74 -19 176 34 234 62 67 174 78 251 24z"/>
<path d="M9407 4106 c-94 -26 -182 -113 -207 -207 -18 -66 -14 -168 9 -230 69
-184 310 -253 447 -127 l44 41 0 -47 0 -46 65 0 65 0 0 305 0 305 -65 0 -65 0
0 -41 0 -41 -39 35 c-41 37 -121 68 -175 66 -17 0 -53 -6 -79 -13z m179 -131
c106 -53 142 -167 89 -279 -22 -46 -83 -93 -133 -102 -44 -8 -113 9 -151 37
-78 57 -100 183 -49 270 55 94 148 122 244 74z"/>
<path d="M10136 4106 c-52 -19 -86 -45 -114 -87 -20 -29 -23 -44 -20 -96 3
-53 9 -68 33 -94 39 -41 90 -66 172 -85 83 -19 102 -29 113 -60 13 -34 -10
-77 -50 -94 -66 -27 -170 11 -170 62 0 15 -9 18 -60 18 -69 0 -73 -7 -39 -76
55 -114 218 -156 353 -90 67 33 98 75 104 141 9 107 -41 160 -185 199 -110 29
-131 40 -139 71 -9 36 4 63 38 81 51 26 138 -1 138 -43 0 -9 17 -13 61 -13
l62 0 -6 35 c-3 19 -15 48 -26 64 -45 63 -183 97 -265 67z"/>
<path d="M11193 4101 c-95 -32 -169 -111 -194 -206 -16 -58 -6 -181 18 -236
68 -152 249 -221 415 -159 58 21 148 96 148 123 0 7 -20 23 -44 34 l-44 22
-35 -33 c-73 -68 -207 -73 -279 -9 -24 20 -59 93 -52 105 3 4 114 8 246 8
l241 0 -5 73 c-6 94 -37 164 -98 221 -78 73 -205 96 -317 57z m203 -121 c44
-22 71 -53 84 -101 l9 -29 -185 0 -184 0 15 37 c43 103 156 143 261 93z"/>
<path d="M12389 4105 c-134 -43 -182 -198 -88 -287 38 -36 111 -66 202 -83
114 -22 97 -141 -21 -153 -60 -5 -105 15 -124 58 -12 28 -17 30 -65 30 -46 0
-53 -3 -53 -19 0 -82 89 -162 197 -177 157 -20 298 86 278 209 -15 92 -63 131
-205 167 -98 25 -120 40 -120 86 0 41 38 74 87 74 27 0 43 -8 72 -37 33 -35
40 -37 86 -34 28 2 51 4 53 6 2 2 -1 21 -7 42 -27 98 -171 157 -292 118z"/>
<path d="M12010 4103 c-28 -10 -73 -58 -91 -98 l-19 -40 0 68 0 67 -65 0 -65
0 0 -305 0 -305 64 0 64 0 4 173 c3 154 6 178 27 225 13 29 38 64 54 78 29 24
37 26 103 22 l71 -5 10 54 c9 48 8 55 -8 64 -19 10 -123 11 -149 2z"/>
</g>
</svg>
